/vscmnt/brussel_pixiu_data/_data_brussel/112/vsc11236/PredSimResults/SUBJ09mtu3D/worker8.mot
version=1
nRows=9
nColumns=50
inDegrees=yes
endheader
                time	         pelvis_tilt	         pelvis_list	     pelvis_rotation	           pelvis_tx	           pelvis_ty	           pelvis_tz	       hip_flexion_r	     hip_adduction_r	      hip_rotation_r	        knee_angle_r	       ankle_angle_r	         mtp_angle_r	       hip_flexion_l	     hip_adduction_l	      hip_rotation_l	        knee_angle_l	       ankle_angle_l	         mtp_angle_l	    lumbar_extension	      lumbar_bending	     lumbar_rotation	 ercspn_r/activation	 intobl_r/activation	 extobl_r/activation	    abd_r/activation	    add_r/activation	hamstrings_r/activation	bifemsh_r/activation	glut_max_r/activation	iliopsoas_r/activation	rect_fem_r/activation	  vasti_r/activation	gastroc_r/activation	 soleus_r/activation	tib_ant_r/activation	 ercspn_l/activation	 intobl_l/activation	 extobl_l/activation	    abd_l/activation	    add_l/activation	hamstrings_l/activation	bifemsh_l/activation	glut_max_l/activation	iliopsoas_l/activation	rect_fem_l/activation	  vasti_l/activation	gastroc_l/activation	 soleus_l/activation	tib_ant_l/activation	
          1.22329898	         -3.39669706	         -1.34177451	          7.71891894	          1.51689073	          0.99024727	         -0.00403818	         28.90777057	         -1.07671267	         -9.10425578	         -9.05759762	          2.29665063	          0.23233630	        -13.99643442	         -2.72318921	         -6.76951469	        -11.76295102	          4.15999150	         37.53044336	        -14.09053033	         -0.31540886	         -4.45348910	          0.03971902	          0.13673927	          0.02778739	          0.01000173	          0.26798466	          0.06308088	          0.14337265	          0.09884581	          0.12661480	          0.01560922	          0.01000589	          0.01755757	          0.01449800	          0.34842501	          0.04959434	          0.01001060	          0.01000674	          0.02616315	          0.01921561	          0.03719116	          0.18318153	          0.01520902	          0.01106212	          0.01002523	          0.01001666	          0.18124201	          0.27289823	          0.01002374	
          1.23553196	         -3.40343106	         -1.40165410	          7.69359733	          1.53658256	          0.98849265	         -0.00326197	         28.71481769	         -0.94837148	         -9.20666094	        -10.76683734	          2.14714368	          0.20346603	        -14.68897532	         -3.01050141	         -7.20859814	        -12.41036903	          2.80993254	         39.12892478	        -13.63186153	          0.03158697	         -4.62703334	          0.03299606	          0.11358235	          0.02308195	          0.08972886	          0.25295511	          0.07145721	          0.11909770	          0.10857981	          0.10517235	          0.01296678	          0.01000429	          0.01459798	          0.01204694	          0.37348238	          0.04120231	          0.01000837	          0.01002865	          0.02173246	          0.01596541	          0.06393408	          0.15217878	          0.01265414	          0.01001731	          0.01000873	          0.01014059	          0.15055278	          0.23234371	          0.01000079	
          1.24776495	         -3.39406760	         -1.46531912	          7.64256448	          1.55656446	          0.98697078	         -0.00239384	         28.41980497	         -0.80852793	         -9.28537152	        -12.32421710	          1.81606413	          0.19668042	        -15.17184983	         -3.33472836	         -7.65712393	        -13.48077845	          1.38095319	         40.61579128	        -13.15332343	          0.37939940	         -4.78034368	          0.02743475	          0.09434702	          0.01917336	          0.14901675	          0.26614233	          0.06476276	          0.09893155	          0.12610800	          0.08736127	          0.01077274	          0.01000630	          0.01212845	          0.01000822	          0.40136785	          0.04264585	          0.01000537	          0.01000959	          0.01805210	          0.01326800	          0.05315897	          0.12642775	          0.01051354	          0.01007937	          0.01001696	          0.01003667	          0.12505737	          0.19299662	          0.01000135	
          1.25999794	         -3.36932476	         -1.52603620	          7.56550298	          1.57650915	          0.98582496	         -0.00142316	         28.19057512	         -0.67467829	         -9.36399084	        -14.02062339	          1.53029430	          0.16512375	        -15.34320172	         -3.70098634	         -8.10535389	        -15.12103662	         -0.10434502	         41.87870658	        -12.69436635	          0.72091470	         -4.90877926	          0.03703707	          0.07836925	          0.01592675	          0.20383998	          0.29148486	          0.06283641	          0.08217970	          0.16143106	          0.07256656	          0.01000812	          0.07129020	          0.01009570	          0.01004845	          0.41302106	          0.09162533	          0.01000636	          0.01000561	          0.01499502	          0.04872644	          0.04421240	          0.10505462	          0.01000318	          0.01024409	          0.01001026	          0.01001113	          0.10387908	          0.16031219	          0.01000093	
          1.27223093	         -3.33136688	         -1.58264359	          7.46520853	          1.59617318	          0.98522729	         -0.00036549	         28.05468190	         -0.55104477	         -9.43000958	        -15.92998690	          1.57571243	          0.12665950	        -15.11482520	         -4.11804371	         -8.56977931	        -17.44256645	         -1.66074872	         42.77175055	        -12.27979409	          1.05595475	         -5.01021413	          0.03627895	          0.06509738	          0.01323010	          0.22605079	          0.31343078	          0.05691742	          0.06826487	          0.19816685	          0.06027739	          0.01000973	          0.14121576	          0.01001132	          0.01000377	          0.40823882	          0.10563721	          0.01000503	          0.01000684	          0.01245569	          0.10994245	          0.03679625	          0.08810267	          0.01000160	          0.03057004	          0.01000573	          0.01000268	          0.08628726	          0.13316285	          0.01000190	
          1.28446392	         -3.28346935	         -1.62120639	          7.33925329	          1.61539805	          0.98531454	          0.00075358	         27.93340089	         -0.43944843	         -9.47977238	        -17.89886139	          1.99405666	          0.10909384	        -14.41952299	         -4.58541330	         -9.08782266	        -20.54948120	         -3.19352063	         42.87861691	        -11.92563265	          1.37022294	         -5.08037449	          0.03017668	          0.05407318	          0.01099060	          0.23090607	          0.32056961	          0.06152896	          0.05670674	          0.21275978	          0.05006944	          0.01000961	          0.19750312	          0.01002254	          0.01001057	          0.36349913	          0.12106446	          0.01000425	          0.01000611	          0.01034649	          0.15551181	          0.03065789	          0.07323623	          0.01000121	          0.02540593	          0.01000486	          0.01000156	          0.07167467	          0.11061133	          0.01000245	
          1.29669691	         -3.22925848	         -1.62475853	          7.18476741	          1.63411174	          0.98614513	          0.00190789	         27.71264625	         -0.33431367	         -9.48266212	        -19.71089767	          2.78461703	          0.21164622	        -13.23489214	         -5.10188548	         -9.64323741	        -24.44460450	         -4.75638027	         41.98496471	        -11.63729431	          1.64536593	         -5.11584109	          0.02507061	          0.04491596	          0.01000286	          0.23026476	          0.31594771	          0.06815432	          0.04710609	          0.22964502	          0.04159024	          0.01000820	          0.24517370	          0.01001476	          0.01000514	          0.30323633	          0.11017770	          0.01000212	          0.01000693	          0.01000062	          0.22003963	          0.02576935	          0.06084957	          0.01000084	          0.02110743	          0.01000385	          0.01000086	          0.05953688	          0.09187899	          0.03523381	
          1.30892990	         -3.17184100	         -1.57622252	          6.99462194	          1.65223999	          0.98769553	          0.00305630	         27.29211534	         -0.23313160	         -9.41111091	        -21.13049071	          3.67852332	          0.53665080	        -11.58454144	         -5.65090191	        -10.18643868	        -29.04199091	         -6.32503065	         39.78961355	        -11.42133658	          1.86600525	         -5.10888843	          0.02082695	          0.03730951	          0.01000768	          0.23260079	          0.30170452	          0.07232837	          0.03913135	          0.19076831	          0.03454703	          0.01000442	          0.27843872	          0.01002471	          0.01000865	          0.25188462	          0.09153537	          0.01128250	          0.03746494	          0.01000130	          0.24504303	          0.03260336	          0.05055040	          0.01000392	          0.01753497	          0.01000334	          0.01000126	          0.04945493	          0.07631905	          0.09084542	
          1.32116289	         -3.11371867	         -1.47716420	          6.76902363	          1.66969273	          0.98984648	          0.00416106	         26.65794145	         -0.13477005	         -9.26024421	        -22.10337720	          4.57230184	          1.08687715	         -9.54365907	         -6.20730978	        -10.59776162	        -34.16148073	         -7.70395664	         36.00561332	        -11.28530248	          2.03592672	         -5.05838602	          0.01730242	          0.03099125	          0.01000374	          0.19323768	          0.25061987	          0.07244727	          0.03250687	          0.15846649	          0.02869666	          0.01000630	          0.30231049	          0.01001417	          0.01000590	          0.20923027	          0.15244044	          0.05719037	          0.11233071	          0.01700252	          0.20354546	          0.02711300	          0.04199729	          0.01155439	          0.01456805	          0.01001477	          0.01000183	          0.04108039	          0.06339423	          0.20113278	
